<svg width="1251" height="251" xmlns="http://www.w3.org/2000/svg" xmlns:xlink="http://www.w3.org/1999/xlink" overflow="hidden"><g transform="translate(-24 -267)"><path d="M28.0771 274C26.803 274 25.2741 274 24 274 43.6212 290.803 57.8912 308.382 66.3003 331.906 67.3196 335.526 70.3774 337.594 75.4738 338.369 87.1956 338.628 98.6625 340.179 110.639 340.437 112.168 340.696 113.952 340.954 117.01 343.022 104.523 346.383 92.5468 347.934 82.0992 349.744 75.219 350.261 71.6515 351.553 73.9449 358.792 75.9835 367.581 76.4931 376.112 77.2576 383.091 78.022 387.486 79.0413 389.554 82.6088 389.554 83.1185 389.554 83.8829 389.554 84.6474 389.296 108.091 391.364 130.006 391.364 153.449 393.173 154.214 392.656 155.233 392.398 156.252 392.398 157.781 392.398 159.82 392.915 161.858 394.466 148.098 395.759 135.612 398.861 122.106 400.153 109.875 401.704 96.1143 403.255 82.354 404.548 82.0992 404.289 81.5895 404.289 81.3347 404.289 78.7865 404.289 77.2576 406.099 78.022 410.752 78.2769 420.834 76.7479 430.916 71.9063 440.481 71.3967 445.393 72.9256 445.651 77.7672 446.427 86.1763 447.719 94.5854 447.461 102.994 448.753 106.307 449.27 109.62 449.529 114.207 452.114 102.23 453.665 90.2534 455.216 78.022 456.767 71.1419 457.543 65.7906 460.128 62.9876 466.59 56.8719 485.979 44.3857 501.231 29.0964 512.605 27.3127 513.898 27.3127 513.898 27.0579 515.707 26.5482 515.707 26.2934 515.449 26.0386 515.449 25.2741 515.449 25.2741 515.966 25.0193 517 47.1887 517 68.3388 510.02 86.686 500.972 128.731 480.033 165.171 451.338 200.081 420.834 203.394 418.249 209 406.099 208.236 393.173 206.961 374.044 199.317 368.098 196.514 365.513 174.09 346.641 151.156 329.58 126.438 313.811 99.9366 297.783 73.4353 283.306 43.876 277.102 38.7796 275.034 33.4284 274 28.0771 274" fill="#0D0D0D" fill-rule="evenodd"/><path d="M1056 409 196 401.552 196 386.552 1056 379 1056 409Z" fill="#0D0D0D" fill-rule="evenodd"/><path d="M1154.48 396.775C1151.44 396.775 1148.66 396.516 1145.62 395.74 1128.15 390.827 1117.01 373.761 1121.82 355.66 1126.12 339.628 1139.04 330.577 1153.21 330.577 1156.25 330.577 1159.54 331.094 1162.58 331.87 1180.31 336.783 1190.69 355.66 1186.38 371.951 1182.33 386.948 1168.91 396.775 1154.48 396.775M1089.92 268C1064.6 295.151 1047.38 330.06 1043.08 369.623 1037 422.116 1054.47 472.023 1086.88 509 1091.94 507.966 1095.99 506.931 1097.26 506.673 1153.97 494.261 1206.89 470.471 1255 438.148 1261.07 434.528 1261.58 432.976 1256.01 428.063 1238.79 414.358 1238.79 414.358 1238.79 414.358 1236.01 412.031 1235 409.962 1239.05 407.377 1249.17 401.429 1259.81 393.93 1269.94 387.983 1273.99 385.656 1275 382.294 1270.7 379.45 1248.92 357.729 1224.61 338.593 1199.8 321.268 1177.52 308.08 1155.24 294.893 1131.95 285.067 1118.27 278.861 1104.1 273.172 1089.92 268" fill="#0D0D0D" fill-rule="evenodd"/><path d="M1127.5 364.5C1127.5 349.036 1139.59 336.5 1154.5 336.5 1169.41 336.5 1181.5 349.036 1181.5 364.5 1181.5 379.964 1169.41 392.5 1154.5 392.5 1139.59 392.5 1127.5 379.964 1127.5 364.5Z" stroke="#172C51" stroke-width="1.33333" stroke-miterlimit="8" fill="#0D0D0D" fill-rule="evenodd"/></g></svg>